<svg width="40" height="40" viewBox="0 0 40 40" fill="none" xmlns="http://www.w3.org/2000/svg">
	<path d="M20.7887 13.0975C20.5937 12.8625 20.3063 12.7275 20.0025 12.7275C19.6988 12.7275 19.4112 12.8625 19.2162 13.0975L8.48125 26.0012C8.11625 26.44 8.1725 27.095 8.60625 27.4638C9.04 27.8325 9.68875 27.7762 10.0538 27.3375L20.0037 15.3787L29.9538 27.3375C30.1575 27.5812 30.4475 27.7075 30.74 27.7075C30.9737 27.7075 31.2075 27.6275 31.4 27.4638C31.8337 27.095 31.89 26.44 31.525 26.0012L20.7887 13.0975ZM23.4625 9.7775C22.6025 8.74375 21.3425 8.15 20.005 8.15H20.0025C18.665 8.15 17.405 8.745 16.545 9.78L5.49375 23.0963C4.64125 24.025 4.12 25.2675 4.12 26.6338C4.12 29.5063 6.425 31.835 9.2675 31.835C10.9637 31.835 12.3312 31.0575 13.405 29.7275L20.005 21.805L26.545 29.6575C27.4788 30.9762 29.0062 31.835 30.7337 31.835C33.5762 31.835 35.8812 29.5063 35.8812 26.6338C35.8812 25.4513 35.4913 24.3612 34.8325 23.4875C34.7963 23.4137 23.4625 9.7775 23.4625 9.7775ZM32.92 28.845C32.3362 29.435 31.5587 29.76 30.7337 29.76C29.9087 29.76 29.1313 29.435 28.5475 28.845C28.515 28.8125 20.005 18.5688 20.005 18.5688C20.005 18.5688 11.5 28.7975 11.4537 28.845C10.87 29.435 10.0925 29.76 9.2675 29.76C8.44125 29.76 7.665 29.435 7.08 28.845C6.49625 28.255 6.17375 27.47 6.17375 26.635C6.17375 25.9575 6.38625 25.3125 6.7775 24.7787C6.7875 24.7687 6.79625 24.7575 6.80625 24.7463L18.12 11.1163C18.36 10.8275 18.6513 10.6025 18.985 10.45C19.3013 10.305 19.6537 10.2275 20.005 10.2275H20.0063C20.3563 10.2275 20.7087 10.3038 21.025 10.4488C21.3587 10.6013 21.65 10.8262 21.89 11.115L32.9738 24.4813C33.5238 25.065 33.825 25.8263 33.825 26.635C33.8263 27.4688 33.5037 28.2537 32.92 28.845ZM38.4925 21.5112C38.455 21.425 26.5925 7.1 26.5925 7.1C26.5925 7.1 26.5925 7.09875 26.5912 7.09875C25.755 6.0925 24.7363 5.31 23.565 4.77375C23.0063 4.5175 22.4187 4.3225 21.8175 4.1925C21.2237 4.065 20.615 4 20.0075 4H20.0037C19.395 4 18.785 4.06625 18.1912 4.195C17.59 4.325 17.0025 4.52125 16.4438 4.7775C15.2725 5.315 14.255 6.0975 13.4187 7.105L2.63375 20.095C1.00375 21.7825 0 24.09 0 26.635C0 31.8075 4.14875 36 9.2675 36C11.8087 36 14.135 34.98 15.8088 33.3062C15.9288 33.1987 20.0025 28.2588 20.0025 28.2588C20.0225 28.2825 24.1675 33.2613 24.2325 33.3088C25.905 34.9725 28.2 36 30.7325 36C35.85 36 40 31.8075 40 26.635C40 24.7438 39.475 22.9175 38.4925 21.5112ZM37.38 29.4713C37.2 29.9025 36.9763 30.3187 36.715 30.7087C36.4563 31.095 36.16 31.4587 35.8325 31.7887C35.505 32.1187 35.1462 32.4188 34.7637 32.68C34.3787 32.9438 33.9663 33.1687 33.54 33.3512C32.6525 33.7312 31.7075 33.9237 30.7337 33.9237C29.76 33.9237 28.815 33.7312 27.9275 33.3512C27.5 33.1687 27.0888 32.9425 26.7038 32.68C26.3213 32.4188 25.9613 32.1187 25.635 31.7887C25.6275 31.7812 24.9563 30.9775 24.2625 30.1475L20.005 25.0187L14.415 31.74C14.4 31.7562 14.3838 31.7725 14.3675 31.7875C14.04 32.1175 13.6812 32.4175 13.2987 32.6787C12.9137 32.9425 12.5012 33.1675 12.075 33.35C11.1875 33.73 10.2425 33.9225 9.26875 33.9225C8.29375 33.9225 7.35 33.73 6.4625 33.35C6.035 33.1675 5.62375 32.9412 5.23875 32.6787C4.85625 32.4175 4.49625 32.1175 4.17 31.7875C3.8425 31.4575 3.54625 31.0938 3.2875 30.7075C3.0275 30.3175 2.80375 29.9012 2.6225 29.47C2.2475 28.5725 2.05625 27.6188 2.05625 26.6338C2.05625 25.6488 2.24625 24.695 2.6225 23.7975C2.8025 23.3663 3.02625 22.95 3.2875 22.56C3.32875 22.4975 3.3725 22.4363 3.415 22.375C3.4425 22.3488 3.47 22.32 3.495 22.2887L14.9963 8.4375C15.6338 7.67 16.4075 7.07375 17.2962 6.66625C18.1375 6.28 19.075 6.075 20.0075 6.075H20.01C20.9413 6.075 21.8775 6.27875 22.7188 6.66375C23.6075 7.07125 24.3825 7.66625 25.02 8.4325L32.485 17.4338C32.4825 17.4338 32.48 17.4325 32.4775 17.4325L35.85 21.4937C35.8525 21.4962 35.8562 21.5 35.8587 21.5025L36.6338 22.4375C36.6613 22.4775 36.6888 22.5175 36.7163 22.5588C36.9763 22.9488 37.2 23.365 37.3812 23.7962C37.7562 24.6937 37.9475 25.6475 37.9475 26.6325C37.945 27.62 37.755 28.5738 37.38 29.4713Z" fill="#008CFF"/>
</svg>
